HIERARCHY
ROOT Hips
{
	OFFSET 0.000000 0.000000 0.000000
	CHANNELS 6 Xposition Yposition Zposition Xrotation Yrotation Zrotation
	JOINT LeftUpLeg_virtual
	{
		OFFSET 0.000000 0.000000 0.000000
		CHANNELS 3 Xrotation Yrotation Zrotation
		JOINT LeftUpLeg
		{
			OFFSET 11.394100 -6.187798 -0.413800
			CHANNELS 3 Xrotation Yrotation Zrotation
			JOINT LeftLeg
			{
				OFFSET 0.430247 -32.302673 3.732800
				CHANNELS 3 Xrotation Yrotation Zrotation
				JOINT LeftFoot
				{
					OFFSET -0.430247 -48.264931 -6.423300
					CHANNELS 3 Xrotation Yrotation Zrotation
					JOINT LeftToeBase
					{
						OFFSET 4.230900 -16.068199 23.438400
						CHANNELS 3 Xrotation Yrotation Zrotation
						JOINT LeftToe_End
						{
							OFFSET 4.510700 0.695400 19.974600
							CHANNELS 3 Xrotation Yrotation Zrotation
							End Site
							{
								OFFSET 0 0 0
							}
						}
					}
				}
			}
		}
	}
	JOINT RightUpLeg_virtual
	{
		OFFSET 0.000000 0.000000 0.000000
		CHANNELS 3 Xrotation Yrotation Zrotation
		JOINT RightUpLeg
		{
			OFFSET -11.333700 -6.187798 -0.413800
			CHANNELS 3 Xrotation Yrotation Zrotation
			JOINT RightLeg
			{
				OFFSET -0.430392 -32.302628 3.733000
				CHANNELS 3 Xrotation Yrotation Zrotation
				JOINT RightFoot
				{
					OFFSET 0.430392 -48.264973 -6.423500
					CHANNELS 3 Xrotation Yrotation Zrotation
					JOINT RightToeBase
					{
						OFFSET -4.230900 -16.068199 23.438400
						CHANNELS 3 Xrotation Yrotation Zrotation
						JOINT RightToe_End
						{
							OFFSET -4.510700 0.695400 19.974600
							CHANNELS 3 Xrotation Yrotation Zrotation
							End Site
							{
								OFFSET 0 0 0
							}
						}
					}
				}
			}
		}
	}
	JOINT Spine_virtual
	{
		OFFSET 0.000000 0.000000 0.000000
		CHANNELS 3 Xrotation Yrotation Zrotation
		JOINT Spine
		{
			OFFSET -0.002400 12.777504 0.315300
			CHANNELS 3 Xrotation Yrotation Zrotation
			JOINT Spine1
			{
				OFFSET -0.002067 5.816869 0.032633
				CHANNELS 3 Xrotation Yrotation Zrotation
				JOINT Spine1_split
				{
					OFFSET -0.002067 5.816869 0.032633
					CHANNELS 3 Xrotation Yrotation Zrotation
					JOINT Spine2
					{
						OFFSET -0.002067 5.816869 0.032633
						CHANNELS 3 Xrotation Yrotation Zrotation
						JOINT Neck_virtual
						{
							OFFSET 0.000000 0.000000 0.000000
							CHANNELS 3 Xrotation Yrotation Zrotation
							JOINT Neck
							{
								OFFSET -0.003700 21.199493 -0.826900
								CHANNELS 3 Xrotation Yrotation Zrotation
								JOINT Head
								{
									OFFSET 0.000000 20.442200 4.834800
									CHANNELS 3 Xrotation Yrotation Zrotation
									JOINT HeadTop_End
									{
										OFFSET 0.000000 34.668396 4.968400
										CHANNELS 3 Xrotation Yrotation Zrotation
										End Site
										{
											OFFSET 0 0 0
										}
									}
								}
							}
						}
						JOINT LeftShoulder_virtual
						{
							OFFSET 0.000000 0.000000 0.000000
							CHANNELS 3 Xrotation Yrotation Zrotation
							JOINT LeftShoulder
							{
								OFFSET 3.288150 8.794197 -1.372250
								CHANNELS 3 Xrotation Yrotation Zrotation
								JOINT LeftShoulder_split
								{
									OFFSET 3.288150 8.794197 -1.372250
									CHANNELS 3 Xrotation Yrotation Zrotation
									JOINT LeftArm
									{
										OFFSET 11.953299 -2.279007 -0.146200
										CHANNELS 3 Xrotation Yrotation Zrotation
										JOINT LeftForeArm
										{
											OFFSET 18.448900 0.000000 0.000000
											CHANNELS 3 Xrotation Yrotation Zrotation
											JOINT LeftHand
											{
												OFFSET 29.527798 0.000000 0.000000
												CHANNELS 3 Xrotation Yrotation Zrotation
												End Site
												{
													OFFSET 0 0 0
												}
											}
										}
									}
								}
							}
						}
						JOINT RightShoulder_virtual
						{
							OFFSET 0.000000 0.000000 0.000000
							CHANNELS 3 Xrotation Yrotation Zrotation
							JOINT RightShoulder
							{
								OFFSET -3.249400 8.794197 -1.372250
								CHANNELS 3 Xrotation Yrotation Zrotation
								JOINT RightShoulder_split
								{
									OFFSET -3.249400 8.794197 -1.372250
									CHANNELS 3 Xrotation Yrotation Zrotation
									JOINT RightArm
									{
										OFFSET -11.953299 -2.279007 -0.146200
										CHANNELS 3 Xrotation Yrotation Zrotation
										JOINT RightForeArm
										{
											OFFSET -18.448900 0.000000 0.000000
											CHANNELS 3 Xrotation Yrotation Zrotation
											JOINT RightHand
											{
												OFFSET -29.527802 0.000000 0.000000
												CHANNELS 3 Xrotation Yrotation Zrotation
												End Site
												{
													OFFSET 0 0 0
												}
											}
										}
									}
								}
							}
						}
					}
				}
			}
		}
	}
}
MOTION
Frames: 4
Frame Time: 0.03333333
14.628013 55.642685 -51.579632 0.000000 0.000000 0.000000 43.748827 -26.044331 10.025086 -57.153292 -11.321449 -3.927749 112.056070 -0.196728 -1.376054 9.985226 -5.186626 -6.099778 13.423484 -26.607444 -49.733770 0.000000 0.000000 0.000000 44.780793 -24.806501 9.197767 -112.513870 -7.590775 -23.599243 102.842759 -11.979125 6.156292 -20.237632 -2.513355 5.552711 -9.642727 -1.489137 -0.862087 0.000000 0.000000 0.000000 43.042609 -27.449770 10.487730 35.878670 7.683545 6.771750 5.138583 2.693929 0.757125 0.360362 -0.706153 2.128184 0.000000 0.000000 0.000000 7.211074 2.385073 1.309297 -9.727101 -3.756336 -0.372805 -20.905273 -15.925682 -7.343498 0.000000 0.000000 0.000000 6.490575 2.333921 0.921107 5.436376 -21.822202 -8.574640 3.036324 0.690916 -3.600093 -26.150691 -18.808528 -38.725270 1.527545 -36.505479 0.493118 0.000000 0.000000 0.000000 5.617092 1.999286 1.567702 -1.195393 28.480207 15.847804 -0.513971 4.078909 -1.662203 -50.929384 47.856059 17.059115 -1.111279 15.288164 -0.007335 0.000000 0.000000 0.000000 
15.057891 56.088680 -51.684025 0.000000 0.000000 0.000000 42.041744 -28.520710 10.556504 -61.506489 -10.160804 -3.239536 113.678697 -0.432489 -2.072005 11.428616 -4.855885 -7.500206 -2.307101 -21.497506 -46.385853 0.000000 0.000000 0.000000 43.480745 -26.282399 9.752844 -111.140708 -8.137703 -24.069769 102.029871 -12.395732 7.208770 -21.320596 -2.913314 5.849839 -10.036146 -1.319425 -1.270822 0.000000 0.000000 0.000000 41.464613 -29.090404 10.974624 35.868264 8.192572 5.867240 5.390736 2.788719 0.623605 0.393960 -0.886571 2.243380 0.000000 0.000000 0.000000 7.422932 2.464297 1.081932 -8.419819 -2.863916 -1.150122 -20.589634 -14.501982 -7.933564 0.000000 0.000000 0.000000 6.736804 2.460958 0.612065 5.748821 -22.619399 -8.986605 2.192408 0.271585 -3.462593 -24.252926 -15.899670 -38.285533 1.678672 -38.323218 0.520168 0.000000 0.000000 0.000000 5.890026 2.156956 1.360927 -0.910125 28.154414 15.366273 -0.226414 3.839609 -1.822106 -48.733577 46.188297 17.006659 -1.053877 18.551726 -0.066043 0.000000 0.000000 0.000000 
15.254901 56.750320 -50.804623 0.000000 0.000000 0.000000 40.454626 -29.957408 10.800059 -64.766647 -8.530585 -2.615115 113.286139 -0.773316 -2.240508 12.514158 -5.606631 -9.527185 -30.140829 -14.734087 -36.835825 0.000000 0.000000 0.000000 42.630011 -28.320461 10.868652 -109.923780 -8.672322 -24.331045 101.301268 -12.866879 8.383893 -22.206231 -3.776972 6.018232 -10.903021 -0.971736 -1.843717 0.000000 0.000000 0.000000 40.450139 -30.363934 11.583491 35.610042 8.741207 4.700690 5.636676 2.926371 0.423954 0.669881 -1.390422 2.347149 0.000000 0.000000 0.000000 7.532701 2.620906 0.778722 -7.178747 -2.014508 -1.974443 -20.181416 -12.958978 -8.314950 0.000000 0.000000 0.000000 6.984948 2.614837 0.269679 6.068770 -23.338055 -9.129919 1.607908 -0.332085 -3.247349 -22.698771 -13.233121 -37.577392 1.632355 -39.794646 0.443726 0.000000 0.000000 0.000000 6.151705 2.384059 1.128772 -0.449004 27.696183 14.501439 0.079694 3.385407 -1.951296 -46.938880 44.827150 17.129776 -1.023391 22.229163 0.009501 0.000000 0.000000 0.000000 
15.182523 57.437897 -48.927929 0.000000 0.000000 0.000000 39.168577 -30.452528 10.985681 -66.869260 -6.403012 -2.060597 111.029800 -0.698821 -1.948037 12.634526 -6.441642 -10.708509 -67.788173 -12.180005 -22.159044 0.000000 0.000000 0.000000 42.356083 -30.459423 12.320162 -108.533653 -9.016157 -24.260151 100.433294 -13.007077 9.278167 -22.766390 -4.981011 6.309841 -12.129315 -0.527057 -2.424409 0.000000 0.000000 0.000000 40.107708 -31.041980 12.352782 35.230256 9.158409 3.342334 5.861723 3.054885 0.195738 0.992191 -1.805882 2.469223 0.000000 0.000000 0.000000 7.554421 2.787458 0.467709 -6.186316 -1.340797 -2.745693 -19.760287 -11.473451 -8.517354 0.000000 0.000000 0.000000 7.190908 2.756664 -0.059291 6.385214 -23.992674 -8.943064 1.268008 -1.007814 -3.079231 -21.594497 -11.010740 -36.474262 1.395150 -41.009566 0.315147 0.000000 0.000000 0.000000 6.360502 2.618576 0.909081 0.124298 27.051070 13.356590 0.489605 2.802641 -2.032035 -45.820123 44.046930 17.486864 -1.090278 25.653408 0.229560 0.000000 0.000000 0.000000 
